<svg width="512" height="512" viewBox="0 0 512 512" fill="none" xmlns="http://www.w3.org/2000/svg">
  <ellipse cx="256" cy="256" rx="230" ry="260" fill="#1aab20"/>
  <ellipse cx="256" cy="256" rx="220" ry="245" fill="#fff300" fill-opacity="0.1"/>
  <!-- Область навколо очей -->
  <ellipse cx="175" cy="225" rx="56" ry="54" fill="#fff"/>
  <ellipse cx="337" cy="225" rx="56" ry="54" fill="#fff"/>
  <!-- "Обводки" очей -->
  <ellipse cx="175" cy="225" rx="44" ry="41" fill="#101010"/>
  <ellipse cx="337" cy="225" rx="44" ry="41" fill="#101010"/>
  <!-- Слоти для очей (вирізи) -->
  <ellipse cx="175" cy="225" rx="28" ry="22" fill="#fff300"/>
  <ellipse cx="337" cy="225" rx="28" ry="22" fill="#fff300"/>
  <!-- Декоративні візерунки -->
  <path d="M256 120 Q270 180 256 256 Q242 180 256 120Z" fill="#fff300" stroke="#101010" stroke-width="6"/>
  <path d="M90 310 Q120 320 160 320 Q170 350 200 350" stroke="#ff003c" stroke-width="10" fill="none"/>
  <path d="M422 310 Q392 320 352 320 Q342 350 312 350" stroke="#ff003c" stroke-width="10" fill="none"/>
  <!-- Ніс -->
  <ellipse cx="256" cy="270" rx="18" ry="10" fill="#101010"/>
  <!-- Рот -->
  <ellipse cx="256" cy="340" rx="55" ry="18" fill="#101010"/>
  <ellipse cx="256" cy="346" rx="48" ry="10" fill="#fff300"/>
  <!-- Візерунки на лобі -->
  <path d="M256 100 Q236 140 256 160 Q276 140 256 100Z" fill="#ff003c" stroke="#101010" stroke-width="4"/>
  <circle cx="256" cy="170" r="7" fill="#ff003c" stroke="#fff300" stroke-width="2"/>
</svg>
